<svg width="2179" height="2196" viewBox="0 0 2179 2196" fill="none" xmlns="http://www.w3.org/2000/svg">
<g opacity="0.3">
<path d="M997.657 1294.95C884.517 1250.65 828.709 1123.02 873.006 1009.88" stroke="#86FAF3" stroke-width="5" stroke-linecap="round"/>
<path d="M1361.7 1291.35C1472.97 1134.6 1436.11 917.323 1279.35 806.049C1122.6 694.775 905.322 731.643 794.048 888.396" stroke="#86FAF3" stroke-width="5" stroke-linecap="round"/>
<path d="M461.221 1272.13C360.708 931.705 555.197 574.253 895.625 473.74" stroke="#86FAF3" stroke-width="5" stroke-linecap="round"/>
<path d="M880.084 613.483C616.848 722.771 492.048 1024.76 601.336 1288C710.624 1551.23 1012.61 1676.03 1275.85 1566.75" stroke="#86FAF3" stroke-width="5" stroke-linecap="round"/>
<path d="M1222.76 1024C1213.46 1003.39 1199.88 984.984 1182.92 970.016C1165.97 955.049 1146.03 943.858 1124.42 937.187C1102.81 930.515 1080.03 928.515 1057.59 931.319" stroke="#86FAF3" stroke-width="5" stroke-linecap="round"/>
<path d="M1135.49 1032.46C1120.51 1017.22 1100.14 1008.47 1078.78 1008.1C1057.41 1007.73 1036.75 1015.77 1021.25 1030.48" stroke="#86FAF3" stroke-width="5" stroke-linecap="round"/>
<circle cx="1077.86" cy="1090.09" r="21" stroke="#86FAF3" stroke-width="5" stroke-linecap="round"/>
<path d="M1662.43 1427.59C1476.04 1750.44 1063.21 1861.05 740.365 1674.66C417.517 1488.26 306.901 1075.44 493.297 752.588" stroke="#86FAF3" stroke-width="5" stroke-linecap="round"/>
<path d="M1671.86 1090.09C1671.86 1418.15 1405.92 1684.09 1077.86 1684.09C749.807 1684.09 483.865 1418.15 483.865 1090.09" stroke="#86FAF3" stroke-width="5" stroke-linecap="round"/>
<path d="M1768.95 1489.09C1989.31 1107.41 1858.54 619.362 1476.86 399C1095.19 178.638 607.138 309.411 386.776 691.088" stroke="#86FAF3" stroke-width="5" stroke-linecap="round"/>
<path d="M1768.86 1090.09C1768.86 708.46 1459.49 399.088 1077.86 399.088" stroke="#86A0FA" stroke-width="5" stroke-linecap="round"/>
<path d="M1796.86 1090.09C1796.86 1487.18 1474.96 1809.09 1077.86 1809.09C680.772 1809.09 358.865 1487.18 358.865 1090.09" stroke="#86FAF3" stroke-width="5" stroke-linecap="round"/>
<path d="M1473.21 856.881C1344.41 638.54 1063 565.949 844.658 694.746C626.316 823.543 553.726 1104.95 682.522 1323.3" stroke="#86FAF3" stroke-width="5" stroke-linecap="round"/>
<path d="M1409.68 1652.6C1099.02 1835.86 698.611 1732.57 515.353 1421.91C332.095 1111.24 435.381 710.835 746.047 527.577" stroke="#7B8085" stroke-opacity="0.5" stroke-width="5" stroke-linecap="round"/>
<path d="M1266.09 1409.17C1089.86 1513.13 862.732 1454.54 758.778 1278.31C654.825 1102.09 713.414 874.956 889.64 771.002" stroke="#86A0FA" stroke-width="5" stroke-linecap="round"/>
<path d="M1721.1 1524.71C1481.07 1879.97 998.489 1973.36 643.238 1733.33C287.988 1493.29 194.589 1010.71 434.626 655.462" stroke="#86A0FA" stroke-width="5" stroke-linecap="round"/>
<path d="M1529.21 823.921C1676.3 1073.28 1593.4 1394.67 1344.04 1541.76" stroke="#86A0FA" stroke-width="7.07495" stroke-linecap="round"/>
<path d="M1234.4 997.752C1285.39 1084.2 1256.65 1195.62 1170.2 1246.62C1083.75 1297.62 972.328 1268.87 921.332 1182.42" stroke="#7B8085" stroke-opacity="0.5" stroke-width="5" stroke-linecap="round"/>
<path d="M1287.16 966.628C1355.35 1082.22 1316.92 1231.2 1201.32 1299.38C1085.73 1367.57 936.754 1329.14 868.569 1213.55" stroke="#86FAF3" stroke-width="5" stroke-linecap="round"/>
<path d="M1226.06 1341.31C1087.31 1423.15 908.489 1377.02 826.645 1238.28C744.802 1099.53 790.929 920.712 929.674 838.869" stroke="#86A0FA" stroke-width="5" stroke-linecap="round"/>
<circle cx="1077.86" cy="1090.09" r="841" stroke="#86FAF3" stroke-width="5" stroke-linecap="round"/>
<path d="M1796.86 1090.09C1796.86 692.996 1474.96 371.088 1077.86 371.088C680.772 371.088 358.865 692.996 358.865 1090.09" stroke="#86A0FA" stroke-width="5" stroke-linecap="round"/>
<path d="M1077.86 1656.09C765.271 1656.09 511.865 1402.68 511.865 1090.09C511.865 777.495 765.271 524.088 1077.86 524.088" stroke="#7B8085" stroke-opacity="0.5" stroke-width="5" stroke-linecap="round"/>
<path d="M1077.86 1949.09C603.452 1949.09 218.865 1564.5 218.865 1090.09C218.865 615.676 603.452 231.088 1077.86 231.088" stroke="#86A0FA" stroke-width="5" stroke-linecap="round"/>
<path d="M1226.94 533.715C1534.22 616.05 1716.57 931.892 1634.24 1239.17C1551.9 1546.44 1236.06 1728.8 928.785 1646.46" stroke="#7B8085" stroke-opacity="0.5" stroke-width="5" stroke-linecap="round"/>
<path d="M1226.94 533.715C1534.22 616.05 1716.57 931.892 1634.24 1239.17C1551.9 1546.44 1236.06 1728.8 928.785 1646.46" stroke="#7B8085" stroke-opacity="0.5" stroke-width="5" stroke-linecap="round"/>
<path d="M1844.86 1090.09C1844.86 666.486 1501.47 323.088 1077.86 323.088C654.262 323.088 310.865 666.486 310.865 1090.09" stroke="#7B8085" stroke-opacity="0.5" stroke-width="5" stroke-linecap="round"/>
<path d="M1844.86 1090.09C1844.86 666.486 1501.47 323.088 1077.86 323.088C654.262 323.088 310.865 666.486 310.865 1090.09" stroke="#7B8085" stroke-opacity="0.5" stroke-width="5" stroke-linecap="round"/>
<path d="M587.878 861.399C713.842 591.037 1035.13 473.98 1305.49 599.945C1575.85 725.909 1692.91 1047.19 1566.94 1317.56" stroke="#86FAF3" stroke-width="5" stroke-linecap="round"/>
<path d="M1213.61 1324.85C1342.99 1250.15 1387.32 1084.72 1312.62 955.338C1237.93 825.96 1072.49 781.632 943.115 856.328" stroke="#86FAF3" stroke-width="5" stroke-linecap="round"/>
<path d="M1488.86 1090.59C1488.86 1317.3 1305.08 1501.09 1078.36 1501.09C851.652 1501.09 667.865 1317.3 667.865 1090.59" stroke="#86FAF3" stroke-width="5" stroke-linecap="round"/>
<path d="M529.184 551.531C826.821 248.306 1313.92 243.775 1617.14 541.412" stroke="#7B8085" stroke-opacity="0.5" stroke-width="5" stroke-linecap="round"/>
<path d="M1214.03 1386.25C1050.53 1461.42 857.062 1389.81 781.897 1226.32C706.732 1062.82 778.337 869.351 941.832 794.186" stroke="#7B8085" stroke-opacity="0.5" stroke-width="5" stroke-linecap="round"/>
<path d="M992.239 904.428C1094.76 857.296 1216.07 902.196 1263.2 1004.71" stroke="#7B8085" stroke-opacity="0.5" stroke-width="5" stroke-linecap="round"/>
<path d="M1102.6 1143.45C1131.87 1130 1144.69 1095.36 1131.23 1066.09" stroke="#7B8085" stroke-opacity="0.5" stroke-width="5" stroke-linecap="round"/>
<path d="M1077.43 1205.09C1013.64 1205.12 961.899 1153.44 961.865 1089.65" stroke="#86A0FA" stroke-width="5" stroke-linecap="round"/>
<path d="M1067.86 1124.26C1048.82 1119.16 1037.53 1099.6 1042.63 1080.56C1047.73 1061.52 1067.3 1050.22 1086.33 1055.32" stroke="#86A0FA" stroke-width="5" stroke-linecap="round"/>
<path d="M677.509 907.36C778.541 686.306 1039.64 589.009 1260.7 690.041C1481.75 791.074 1579.05 1052.18 1478.02 1273.23" stroke="#86A0FA" stroke-width="5" stroke-linecap="round"/>
<path d="M906.164 495.626C1234.48 401.005 1577.33 590.451 1671.95 918.765C1766.57 1247.08 1577.13 1589.93 1248.82 1684.56" stroke="#86A0FA" stroke-width="5" stroke-linecap="round"/>
<path d="M1052.44 1002.13C1003.45 1016.25 975.185 1067.41 989.302 1116.39C1003.42 1165.38 1054.57 1193.64 1103.56 1179.53" stroke="#86A0FA" stroke-width="5" stroke-linecap="round"/>
<path d="M1077.84 1780.65C1459.39 1780.71 1768.74 1471.46 1768.81 1089.91" stroke="#86A0FA" stroke-width="5" stroke-linecap="round"/>
<path d="M1077.6 1573.22C810.782 1573.18 594.524 1356.85 594.569 1090.03C594.614 823.22 810.945 606.962 1077.76 607.007" stroke="#86A0FA" stroke-width="5" stroke-linecap="round"/>
<path d="M1270.93 956.668C1343.35 1062.04 1315.47 1206.96 1208.66 1280.37" stroke="#354389" stroke-width="5" stroke-linecap="round"/>
<path d="M1449.76 351.5C1852.12 554.299 2011.64 1049.34 1806.06 1457.21C1600.48 1865.08 1107.65 2031.32 705.296 1828.52" stroke="#354389" stroke-width="5" stroke-linecap="round"/>
<path d="M1396.57 870.37C1515.94 1044.05 1469.98 1282.94 1293.92 1403.95C1117.86 1524.95 878.371 1482.25 759.001 1308.57" stroke="#354389" stroke-width="5" stroke-linecap="round"/>
<path d="M1612.86 964.776C1544.31 673.304 1249.21 493.353 953.748 562.845" stroke="#354389" stroke-width="5" stroke-linecap="round"/>
<path d="M1246.86 1090.09C1246.86 1055.16 1236.04 1021.08 1215.88 992.554C1195.72 964.026 1167.21 942.447 1134.29 930.785C1101.36 919.122 1065.62 917.95 1032 927.43C998.381 936.91 968.523 956.575 946.537 983.721" stroke="#86A0FA" stroke-width="5" stroke-linecap="round"/>
</g>
</svg>
