<svg width="64" height="36" viewBox="0 0 64 36" fill="none" xmlns="http://www.w3.org/2000/svg">
<g clip-path="url(#clip0_263_489)">
<path d="M62.1478 18.7921C61.6109 20.4632 60.583 21.8842 58.3348 24.3653L57.0026 25.8289C56.4886 26.3973 56.2187 26.7242 55.9517 27.0851C54.8032 28.6511 50.1317 31.0895 46.4479 32.448C45.279 32.8591 44.0762 33.1691 42.8531 33.3745L41.0644 33.6871L36.4704 34.4687C33.8633 34.9348 31.5032 34.8808 27.762 34.4289L24.1184 33.9685C23.7624 33.9287 23.5154 33.9088 23.168 33.8804H23.0733C21.3247 33.7468 19.9809 33.3375 17.7615 32.3769L16.145 31.6693C15.4645 31.3851 14.8989 31.1577 14.3505 30.9815L14.0633 30.8962C11.3156 30.0721 5.59897 25.8858 3.84178 23.4786L3.62931 23.1773C2.71052 21.8359 2.09608 20.9037 1.51035 18.9854V18.1896L1.79747 17.2659C2.35449 15.6716 3.32783 14.2875 5.39799 11.9599L7.10637 10.0671C7.54279 9.57543 7.78685 9.27702 8.0309 8.93029C9.17939 7.35866 13.8509 4.90884 17.5318 3.54751C18.5793 3.17648 19.6558 2.89131 20.7504 2.69491L21.7353 2.51018L27.5064 1.53252C30.2226 1.04369 32.6746 1.12327 36.6944 1.63483L39.8297 2.03556C40.1858 2.07535 40.4327 2.09524 40.7801 2.12366H40.8749C42.5201 2.24871 43.8035 2.62101 45.799 3.46794L47.8089 4.34328C48.4827 4.6401 49.1729 4.89914 49.8762 5.11915C52.6211 5.94902 58.3377 10.1495 60.092 12.5652L60.2958 12.875C61.2118 14.2221 61.6769 15.3078 62.2655 17.2404L62.4521 17.8741L62.1478 18.7921Z" fill="white"/>
<path d="M23.0473 2.44238L23.6216 2.17807C26.1902 0.806227 29.064 0.0903229 31.9826 0.0948702C34.1205 0.094586 36.2406 0.479679 38.239 1.23168L38.6065 1.31978C40.7944 1.80577 43.1057 3.97422 44.7079 5.2986C45.8391 6.23079 46.9187 8.09231 47.6681 9.56163C47.76 9.73784 47.8519 9.91973 47.938 10.1016C48.1304 10.4938 48.2912 10.8405 48.4146 11.1048C48.7138 11.7841 48.9429 12.4918 49.098 13.2165C49.3446 14.1637 49.5109 15.1294 49.5947 16.104C49.6599 16.6042 49.7239 17.1356 49.7871 17.6983C50.1374 20.8416 48.3256 24.4112 47.8318 25.6702C47.3379 26.9292 45.0783 29.6746 44.7194 30.1805C44.3605 30.6864 40.5877 33.1276 40.2402 33.4346C39.8928 33.7415 36.5766 34.8016 36.0454 34.9522C35.5142 35.1028 31.2533 35.4354 30.6446 35.4354C30.0359 35.4354 25.4104 34.0399 25.0084 33.8438C24.6064 33.6477 22.0051 32.2324 21.4768 31.9738C20.9485 31.7152 18.663 29.3733 18.3931 29.0437C18.1232 28.714 15.7917 25.2212 15.5793 24.7806C15.3668 24.3401 14.7753 22.3734 14.5399 21.8647C14.3044 21.356 14.1638 18.1189 14.1638 16.985C14.1764 15.9084 14.3495 14.8398 14.6777 13.8133C14.9792 12.8186 15.3438 10.8974 16.6244 8.81702C17.0898 8.08179 17.6069 7.3801 18.172 6.71677C18.6294 6.14865 19.1212 5.60867 19.6449 5.09966C20.7992 3.92591 22.0338 2.8971 23.0473 2.44238Z" fill="#B8B08D"/>
<path d="M40.7858 21.188L40.691 21.3983C40.5516 21.7207 40.3934 22.0348 40.2173 22.339C40.0622 22.6232 39.9301 22.9074 39.7837 23.1689C39.2697 24.2289 37.8657 25.1583 36.9871 25.8119C36.1085 26.4656 34.2623 26.8606 33.5158 27.0113C32.7693 27.1619 31.5921 27.1107 29.9153 26.9175C28.2385 26.7242 26.5904 25.3714 25.9932 24.9707C25.396 24.57 24.2331 23.0921 24.0063 22.8449C23.7795 22.5976 22.9698 20.3837 22.8435 20.1791C22.7171 19.9744 22.5563 18.1442 22.5563 17.8543C22.5563 17.5644 22.875 15.3533 22.9468 15.0407C23.2048 14.4616 23.5002 13.8996 23.8312 13.3582C23.9029 13.2246 23.9805 13.0911 24.058 12.9603L24.1355 12.841C24.2877 12.5852 24.4054 12.3976 24.4456 12.3493L24.5949 12.1788C24.8771 11.8059 25.1882 11.4553 25.5252 11.1301C25.6687 10.9681 25.7865 10.8459 25.8381 10.7691C26.1513 10.5029 26.4886 10.266 26.8459 10.0615C27.7836 9.43746 28.8272 8.98594 29.9268 8.72857C30.0499 8.68291 30.1755 8.64401 30.3029 8.61204C30.5613 8.56373 31.6524 8.487 31.9452 8.43016C32.2865 8.42366 32.6275 8.45512 32.9617 8.52394C33.3743 8.56176 33.784 8.62728 34.1877 8.72004C35.6535 9.05079 37.0173 9.7264 38.1633 10.6896C39.3094 11.6528 40.204 12.8753 40.7714 14.2534C40.889 14.4928 40.9851 14.742 41.0585 14.9981C41.4773 16.3483 41.5756 17.7761 41.3456 19.1701C41.3456 19.2241 41.3456 19.281 41.3255 19.335C41.232 19.9741 41.0503 20.5976 40.7858 21.188Z" fill="black"/>
<path d="M27.2306 9.75449C27.4962 9.86728 27.7437 10.0176 27.9657 10.2007L28.0518 10.2774C28.3225 10.5195 28.5463 10.8084 28.7122 11.13C28.7961 11.2713 28.8598 11.4234 28.9017 11.5819V11.6473C29.0383 12.1234 29.0501 12.6261 28.9362 13.1081L28.9706 12.9205C28.9612 12.999 28.9468 13.0768 28.9275 13.1535C28.8442 13.4821 28.7054 13.7944 28.517 14.0772C28.5063 14.0936 28.4967 14.1107 28.4882 14.1284C28.3275 14.4609 27.8853 14.7508 27.6097 14.9611C27.4616 15.0578 27.3001 15.1324 27.1302 15.1827C26.5697 15.403 25.9546 15.4487 25.3672 15.3135L25.2811 15.2907L25.3816 15.3078C25.2141 15.2848 25.0513 15.2359 24.8992 15.1629C24.3464 14.9373 23.8751 14.552 23.5469 14.0573C23.5394 14.046 23.5308 14.0355 23.521 14.026C23.5019 13.9983 23.4856 13.9688 23.4722 13.9379C23.3317 13.7028 23.2254 13.4493 23.1564 13.1848C23.1448 13.1556 23.1371 13.125 23.1334 13.0939C23.0344 12.6626 23.0344 12.2149 23.1334 11.7837L23.1679 11.6501L23.1851 11.5677C23.2048 11.5361 23.229 11.5074 23.2569 11.4824C23.4269 11.0029 23.7193 10.5751 24.1057 10.2405C24.492 9.90581 24.9593 9.67575 25.462 9.5726L25.5338 9.55271L25.7864 9.52713H25.8611C25.9443 9.52713 26.0161 9.51292 26.0506 9.50439C26.1789 9.50506 26.3068 9.51839 26.4324 9.54418C26.5292 9.55591 26.6252 9.57395 26.7196 9.59818H26.7655L26.8516 9.61523C26.9706 9.64351 27.0861 9.68449 27.1962 9.73744L27.2306 9.75449Z" fill="white"/>
<path d="M0 18.1895V18.5647C0.470881 20.3921 0.674738 21.3726 1.33799 22.3417C3.60339 25.6584 5.62761 28.0513 7.87291 29.4041L10.7929 31.0639L11.4849 31.4447C13.8106 32.7179 15.7171 33.5762 17.569 34.102C18.1561 34.271 18.7536 34.402 19.3578 34.4942L20.133 34.6164L22.7717 35.0768C27.2623 35.8669 30.0933 36.1454 33.556 35.9294C38.3711 35.6253 42.5832 34.7102 47.7887 33.0874C51.3117 31.9932 56.9163 28.1196 59.5837 25.1894C60.5226 24.1578 61.2806 23.399 61.8807 22.2735L62.2654 21.5602C62.6272 20.8241 63.5288 19.0791 63.4828 19.1871C63.5948 18.9313 63.6781 18.9256 63.77 18.6784L63.9968 18.1867L63.9135 17.8627C63.4398 16.0296 62.9 14.674 62.2367 13.702C59.9742 10.3768 57.95 7.9725 55.7076 6.61401L53.5053 5.35784C53.0086 5.07364 52.5262 4.78944 52.2104 4.62744L52.1013 4.56776C49.7785 3.29169 47.872 2.42772 46.0229 1.90195C45.4305 1.73188 44.8271 1.60179 44.2169 1.51259L43.4417 1.38754L40.8059 0.927134C36.3296 0.134211 33.4986 -0.147149 30.0388 0.0716868C25.2266 0.375783 21.0174 1.29375 15.8118 2.9137C12.2917 4.01641 6.68996 7.90713 4.01972 10.8486C3.02534 11.942 2.19298 13.1697 1.54759 14.4949L1.43274 14.7365C1.05948 15.5493 0.462268 17.0328 0.442169 17.0868C0.330191 17.3369 0.226827 17.5956 0.132076 17.8428L0 18.1895ZM61.9553 18.7921C61.4184 20.4632 60.3905 21.8842 58.1424 24.3653L56.8101 25.8289C56.439 26.2303 56.0892 26.6505 55.7621 27.0879C54.6136 28.6539 49.9393 31.0923 46.2555 32.4508C45.0862 32.8609 43.8835 33.1709 42.6607 33.3773L40.8719 33.6871L36.278 34.4715C33.6738 34.9376 31.3136 34.8836 27.5695 34.4317L23.9346 33.9713C23.5785 33.9286 23.3345 33.9087 22.987 33.8803H22.8894C21.1408 33.7467 19.8 33.3347 17.5805 32.3741L15.964 31.6664C15.2807 31.3822 14.715 31.1577 14.1666 30.9815L13.8939 30.8962C11.149 30.0692 5.42949 25.8829 3.6723 23.4757L3.4627 23.1915C2.54391 21.8472 1.92659 20.9179 1.34086 18.9967V18.1895L1.62799 17.2659C2.14481 15.6658 3.11528 14.2818 5.18544 11.9542L6.89382 10.0642C7.33024 9.57255 7.57717 9.2713 7.82122 8.92741C8.96971 7.35578 13.6383 4.9088 17.3192 3.54463C18.3671 3.17491 19.4435 2.88978 20.5379 2.69203L21.5342 2.52151L27.3054 1.53248C30.0244 1.0465 32.4736 1.12608 36.4933 1.6348L39.6516 2.03552C40.0077 2.07531 40.2517 2.09805 40.5992 2.12362H40.6968C42.3391 2.25151 43.6254 2.62382 45.6209 3.47074L47.6308 4.34608C48.3042 4.64302 48.9945 4.90112 49.6981 5.11911C52.443 5.94898 58.1567 10.1495 59.911 12.568L60.1235 12.8693C61.0423 14.2164 61.5074 15.2992 62.0932 17.2318L62.2798 17.8684L61.9553 18.7921Z" fill="black"/>
</g>
<defs>
<clipPath id="clip0_263_489">
<rect width="63.9968" height="36" fill="white"/>
</clipPath>
</defs>
</svg>
