<svg width="800" height="116" viewBox="0 0 800 116" fill="none" xmlns="http://www.w3.org/2000/svg">
<path d="M0.344727 114H30.751V70.25H71.001V114H101.407V2H71.001V45.75H30.751V2H0.344727V114ZM145.438 114L151.892 92.5625H188.86L195.313 114H228.126L191.157 2H149.595L112.626 114H145.438ZM158.782 69.8125L169.938 32.8438H170.813L181.97 69.8125H158.782ZM336.319 2H305.913V60.625H305.038L265.226 2H239.413V114H269.819V55.1562H270.476L310.944 114H336.319V2ZM423.937 38.9687H454.671C452.319 16.4922 431.921 0.468746 405.452 0.468746C375.265 0.468746 350.765 21.25 350.765 58.2188C350.765 93.6562 372.968 115.531 405.671 115.531C434.983 115.531 455.983 97.5937 455.983 66.9687V51.4375H406.327V73.0938H426.671C426.397 82.8281 419.507 89.0625 405.89 89.0625C390.14 89.0625 382.046 77.4687 382.046 57.7812C382.046 38.3672 390.796 26.9375 406.108 26.9375C415.624 26.9375 422.077 31.3125 423.937 38.9687ZM579.161 58C579.161 20.5937 555.099 0.468746 524.692 0.468746C494.067 0.468746 470.224 20.5937 470.224 58C470.224 95.1875 494.067 115.531 524.692 115.531C555.099 115.531 579.161 95.4062 579.161 58ZM547.88 58C547.88 78.125 539.786 89.0625 524.692 89.0625C509.599 89.0625 501.505 78.125 501.505 58C501.505 37.875 509.599 26.9375 524.692 26.9375C539.786 26.9375 547.88 37.875 547.88 58ZM660.011 2V71.125C660.011 81.5703 652.519 89.0625 642.073 89.0625C631.628 89.0625 624.136 81.5703 624.136 71.125V2H593.729V73.75C593.729 99.3437 613.089 115.313 642.073 115.313C670.839 115.313 690.417 99.3437 690.417 73.75V2H660.011ZM702.306 26.5H735.993V114H765.962V26.5H799.649V2H702.306V26.5Z" fill="white"/>
</svg>
