<svg width="349" height="99" viewBox="0 0 349 99" fill="none" xmlns="http://www.w3.org/2000/svg">
<g filter="url(#filter0_d_528_2374)">
<rect x="5" y="5.62744" width="332" height="81.3726" rx="24.4118" fill="#B8B08D"/>
<path d="M70.3122 37.2244H60.0978V29.9009H89.681V37.2244H79.4666V64.2059H70.3122V37.2244ZM111.491 52.8351H96.1211C96.2817 54.7303 96.8277 56.0954 97.7592 56.9305C98.6907 57.7657 100.056 58.1832 101.855 58.1832C103.075 58.1832 104.296 57.9905 105.516 57.6051C106.737 57.1875 107.845 56.6254 108.841 55.9187L111.057 61.7005C109.837 62.5998 108.359 63.3065 106.625 63.8204C104.89 64.3344 103.155 64.5913 101.421 64.5913C98.6265 64.5913 96.2014 64.0774 94.1456 63.0495C92.0899 62.0217 90.516 60.5602 89.4239 58.665C88.3318 56.7378 87.7857 54.4733 87.7857 51.8715C87.7857 49.3982 88.2997 47.1979 89.3275 45.2707C90.3875 43.3113 91.8329 41.7856 93.6638 40.6935C95.5268 39.6014 97.6468 39.0553 100.024 39.0553C102.336 39.0553 104.36 39.5693 106.095 40.5971C107.829 41.625 109.162 43.1025 110.094 45.0298C111.025 46.9249 111.491 49.1412 111.491 51.6788V52.8351ZM100.265 45.0298C98.1125 45.0298 96.7635 46.2825 96.2174 48.7879H104.023C103.702 46.2825 102.449 45.0298 100.265 45.0298ZM125.402 64.5913C120.52 64.5913 116.666 63.6116 113.839 61.6523L116.055 55.726C117.372 56.6254 118.866 57.332 120.536 57.846C122.206 58.3278 123.845 58.5687 125.451 58.5687C126.446 58.5687 127.217 58.4241 127.763 58.1351C128.309 57.846 128.582 57.4445 128.582 56.9305C128.582 56.4808 128.374 56.1275 127.956 55.8705C127.571 55.5815 126.816 55.3245 125.691 55.0996L121.741 54.1842C119.235 53.6703 117.42 52.8672 116.296 51.7751C115.204 50.6509 114.658 49.1091 114.658 47.1498C114.658 45.5758 115.124 44.1786 116.055 42.958C116.987 41.7374 118.272 40.7898 119.91 40.1153C121.58 39.4087 123.491 39.0553 125.643 39.0553C127.41 39.0553 129.144 39.3123 130.847 39.8262C132.549 40.3402 134.139 41.0629 135.617 41.9944L133.304 47.7761C132.019 46.941 130.702 46.2986 129.353 45.8489C128.004 45.3992 126.735 45.1743 125.547 45.1743C124.583 45.1743 123.828 45.3349 123.282 45.6561C122.736 45.9452 122.463 46.3789 122.463 46.957C122.463 47.3104 122.624 47.5994 122.945 47.8243C123.266 48.017 123.877 48.2258 124.776 48.4506L128.871 49.3661C131.473 49.9764 133.336 50.8758 134.46 52.0642C135.617 53.2206 136.195 54.8106 136.195 56.8342C136.195 59.2432 135.231 61.1383 133.304 62.5195C131.409 63.9007 128.775 64.5913 125.402 64.5913ZM154.164 57.5569C154.742 57.5569 155.513 57.4605 156.477 57.2678V63.8686C155.288 64.3504 153.779 64.5913 151.948 64.5913C148.639 64.5913 146.118 63.6598 144.383 61.7968C142.681 59.9338 141.83 57.3481 141.83 54.0397V46.138H137.253V39.7299H141.83V34.189L150.551 31.3945V39.7299H156.429V46.138H150.551V54.0397C150.551 55.196 150.888 56.0793 151.562 56.6896C152.269 57.2678 153.136 57.5569 154.164 57.5569ZM205.817 29.9009V64.2059H196.952V50.3297H183.076V64.2059H174.21V29.9009H183.076V43.2471H196.952V29.9009H205.817ZM234.108 52.8351H218.738C218.899 54.7303 219.445 56.0954 220.376 56.9305C221.308 57.7657 222.673 58.1832 224.472 58.1832C225.692 58.1832 226.913 57.9905 228.134 57.6051C229.354 57.1875 230.462 56.6254 231.458 55.9187L233.674 61.7005C232.454 62.5998 230.976 63.3065 229.242 63.8204C227.507 64.3344 225.773 64.5913 224.038 64.5913C221.244 64.5913 218.819 64.0774 216.763 63.0495C214.707 62.0217 213.133 60.5602 212.041 58.665C210.949 56.7378 210.403 54.4733 210.403 51.8715C210.403 49.3982 210.917 47.1979 211.945 45.2707C213.005 43.3113 214.45 41.7856 216.281 40.6935C218.144 39.6014 220.264 39.0553 222.641 39.0553C224.954 39.0553 226.977 39.5693 228.712 40.5971C230.446 41.625 231.779 43.1025 232.711 45.0298C233.642 46.9249 234.108 49.1412 234.108 51.6788V52.8351ZM222.882 45.0298C220.73 45.0298 219.381 46.2825 218.835 48.7879H226.64C226.319 46.2825 225.066 45.0298 222.882 45.0298ZM253.609 39.1517C254.797 39.1517 255.712 39.3284 256.355 39.6817V47.6316C254.974 46.9892 253.641 46.6679 252.356 46.6679C248.694 46.6679 246.863 48.4185 246.863 51.9197V64.2059H238.142V46.7643C238.142 44.1304 238.014 41.7856 237.757 39.7299H245.948L246.478 43.8253C247.056 42.3156 247.987 41.1592 249.272 40.3562C250.557 39.5532 252.003 39.1517 253.609 39.1517ZM280.972 52.8351H265.602C265.762 54.7303 266.309 56.0954 267.24 56.9305C268.172 57.7657 269.537 58.1832 271.335 58.1832C272.556 58.1832 273.777 57.9905 274.997 57.6051C276.218 57.1875 277.326 56.6254 278.322 55.9187L280.538 61.7005C279.317 62.5998 277.84 63.3065 276.105 63.8204C274.371 64.3344 272.636 64.5913 270.902 64.5913C268.107 64.5913 265.682 64.0774 263.626 63.0495C261.571 62.0217 259.997 60.5602 258.905 58.665C257.813 56.7378 257.267 54.4733 257.267 51.8715C257.267 49.3982 257.78 47.1979 258.808 45.2707C259.868 43.3113 261.314 41.7856 263.145 40.6935C265.008 39.6014 267.128 39.0553 269.505 39.0553C271.817 39.0553 273.841 39.5693 275.575 40.5971C277.31 41.625 278.643 43.1025 279.574 45.0298C280.506 46.9249 280.972 49.1412 280.972 51.6788V52.8351ZM269.745 45.0298C267.593 45.0298 266.244 46.2825 265.698 48.7879H273.504C273.182 46.2825 271.93 45.0298 269.745 45.0298Z" fill="#283845"/>
</g>
<defs>
<filter id="filter0_d_528_2374" x="0.117647" y="0.745089" width="348.275" height="97.6471" filterUnits="userSpaceOnUse" color-interpolation-filters="sRGB">
<feFlood flood-opacity="0" result="BackgroundImageFix"/>
<feColorMatrix in="SourceAlpha" type="matrix" values="0 0 0 0 0 0 0 0 0 0 0 0 0 0 0 0 0 0 127 0" result="hardAlpha"/>
<feOffset dx="3.2549" dy="3.2549"/>
<feGaussianBlur stdDeviation="4.06863"/>
<feComposite in2="hardAlpha" operator="out"/>
<feColorMatrix type="matrix" values="0 0 0 0 1 0 0 0 0 1 0 0 0 0 1 0 0 0 0.2 0"/>
<feBlend mode="normal" in2="BackgroundImageFix" result="effect1_dropShadow_528_2374"/>
<feBlend mode="normal" in="SourceGraphic" in2="effect1_dropShadow_528_2374" result="shape"/>
</filter>
</defs>
</svg>
