<svg width="1360" height="1124" viewBox="0 0 1360 1124" fill="none" xmlns="http://www.w3.org/2000/svg">
<g clip-path="url(#clip0_263_514)">
<g clip-path="url(#clip1_263_514)">
<g clip-path="url(#clip2_263_514)">
<path opacity="0.3" fill-rule="evenodd" clip-rule="evenodd" d="M636.086 333.435L602.41 240.908C602.045 239.869 601.392 238.095 600.451 235.589L601.332 235.233L603.286 240.591C611.853 264.428 617.277 279.479 619.557 285.743C621.134 290.078 628.862 311.292 636.88 333.145L636.086 333.435ZM652.976 328.898L651.191 316.19L652.007 316.075C652.593 320.207 653.2 324.471 653.808 328.756L652.976 328.898ZM676.099 327.508L676.592 320.464L677.424 320.508C677.265 322.84 677.101 325.198 676.942 327.557L676.099 327.508ZM744.195 359.383L749.301 355.005L750.078 355.902L745.01 360.281C744.742 359.969 744.468 359.673 744.195 359.383ZM764.226 391.127L769.086 389.37L807.818 375.337L808.311 376.497C790.912 382.791 775.073 388.538 764.691 392.254C764.527 391.871 764.379 391.482 764.226 391.099V391.127ZM768.725 450.235L802.334 458.062L887.407 477.885L886.958 479.051C837.564 467.557 784.312 455.15 780.897 454.274C779.299 453.864 774.641 452.753 768.473 451.302C768.56 450.93 768.643 450.575 768.725 450.219V450.235ZM762.551 468.844L764.921 469.938L764.527 470.973L762.102 469.829C762.25 469.473 762.392 469.15 762.551 468.811V468.844ZM750.636 488.94L755.283 492.454L754.577 493.324C753.236 492.301 751.682 491.135 749.963 489.811C750.193 489.497 750.417 489.196 750.636 488.908V488.94ZM722.762 514.029L732.22 529.129L731.475 529.578C728.646 525.046 725.165 519.496 722.012 514.478L722.762 514.029ZM705.861 522.238C712.976 541.772 720.376 561.983 720.376 561.983L741.113 618.772L740.194 619.122C728.618 587.471 715.499 551.552 714.75 549.302C713.94 546.878 709.063 533.524 705.041 522.539L705.861 522.238ZM681.939 527.925L682.563 532.342L681.704 532.446C681.49 530.951 681.277 529.468 681.074 528.018L681.939 527.925ZM645.166 525.325C643.622 531.931 642.166 538.187 640.875 543.725L639.747 543.49C640.552 540.206 642.188 533.261 644.126 525.041L645.166 525.325ZM607.019 505.945C592.789 524.756 581.049 540.277 581.049 540.277C581.049 540.277 537.314 598.062 507.749 637.15L506.802 636.4C540.921 591.275 590.539 525.632 593.276 522.222C594.726 520.388 599.942 513.536 606.225 505.256L607.019 505.945ZM592.827 491.803C575.697 506.624 561.839 518.621 561.839 518.621L516.177 558.152L515.373 557.2C546.783 529.999 575.264 505.354 577.503 503.504C579.183 502.114 584.973 497.134 592.138 490.916C592.378 491.239 592.608 491.524 592.844 491.803H592.827ZM575.368 460.541C547.209 470.672 500.388 487.638 500.388 487.638L406.044 521.653L405.721 520.722L406.268 520.52C418.615 516.065 535.289 473.791 538.568 472.609L574.99 459.397C575.127 459.78 575.253 460.169 575.385 460.541H575.368ZM570.661 439.782C550.482 442.518 518.52 446.962 500.869 449.409L500.733 448.314L528.596 444.445L570.53 438.594C570.585 438.977 570.634 439.371 570.678 439.782H570.661ZM572.473 405.581C553.022 401.005 520.238 393.36 497.224 387.996L497.454 386.901L518.799 391.871L572.752 404.399C572.67 404.793 572.582 405.187 572.478 405.581H572.473ZM579.889 384.356C549.24 369.924 487.192 340.851 487.192 340.851L374.448 287.878L374.815 286.964L380.446 289.618C394.605 296.252 528.081 358.765 531.825 360.527C533.237 361.189 554.412 371.09 580.436 383.273L579.889 384.356ZM589.538 368.337L579.347 360.598L580.026 359.624L590.266 367.363L589.538 368.337ZM417.313 643.274L417.548 643.553C389.411 667.914 339.776 710.872 330.461 718.933C317.611 730.038 206.147 826.369 197.571 833.774L128.742 893.26L128.195 892.39C128.195 892.39 187.468 841.376 194.478 835.317C199.152 831.278 209.418 822.372 225.275 808.598C281.542 759.643 312.079 733.088 316.888 728.933C321.398 725.03 335.277 713.094 345.731 704.063L345.589 703.904L416.738 642.059L417.581 643.033L417.313 643.274ZM528.289 262.385L528.026 262.084L529.001 261.241L561.204 298.282L560.23 299.13L559.568 298.37L559.453 298.474L537.145 272.707L528.251 262.417L528.289 262.385ZM839.54 278.311L827.111 289.082L786.227 324.618L785.379 323.644L839.015 277.036L839.863 278.01L839.54 278.311ZM422.299 407.256L422.37 406.238L506.687 412.258L506.611 413.352L489.475 412.127L422.299 407.256ZM292.172 397.951L291.548 397.913C231.629 393.808 198.804 391.517 193.072 391.039C184.468 390.311 119.252 385.654 113.647 385.249C109.907 384.975 99.8006 384.194 83.3268 382.906L83.5786 381.554C135.952 385.25 166.71 387.44 175.854 388.122L292.26 396.589L292.172 397.951ZM916.803 443.044C901.878 441.949 851.871 438.414 811.622 435.524L811.797 434.276L913.683 441.604L916.967 441.84L916.803 443.044ZM964.571 446.563L964.752 445.277C993.212 447.324 1024.41 449.562 1031.9 450.109L1179.36 460.869L1255.74 466.441C1255.62 467.125 1255.55 467.464 1255.55 467.464C1255.55 467.464 1189.87 462.539 1182.12 461.948L1147.88 459.534C1085.25 455.214 1051.25 452.871 1045.9 452.507C1037.89 451.926 1003.4 449.305 1000.18 449.173C998.646 449.086 982.189 447.887 964.571 446.59V446.563ZM658.476 580.46C659.428 566.69 660.118 556.795 660.238 555.629C660.435 553.599 661.098 544.196 661.754 534.558H662.625C661.366 552.75 660.222 569.481 660.222 569.481C660.222 569.481 659.932 573.707 659.467 580.46H658.476ZM654.574 637.522V638.551H655.504C654.174 657.844 653.063 673.983 652.97 675.286C652.735 678.652 647.497 754.53 646.758 765.399C646.019 776.269 639.408 870.574 638.899 877.826C638.56 882.664 637.202 902.075 634.827 936.059L634.017 935.999C634.017 935.999 637.64 885.937 638.056 880.01C638.33 876.051 638.917 867.351 639.819 853.909C642.967 806.173 644.682 780.268 644.963 776.192C645.39 770.084 647.311 743.786 647.399 741.334C647.486 738.883 651.164 687.474 651.635 680.808C651.783 678.263 653.047 659.65 654.574 637.522ZM679.202 283.095L681.84 245.331L682.705 245.374C681.559 260.9 680.813 271.165 680.467 276.171C680.379 277.37 680.215 279.783 679.985 283.111L679.202 283.095ZM684.336 207.972C684.467 205.848 684.608 203.568 684.758 201.13C687.749 155.475 689.424 130.457 689.782 126.079C690.329 119.511 693.717 69.7998 694.018 65.5254C694.215 62.6794 694.786 54.9715 695.731 42.4018L696.826 42.473C694.133 82.3896 692.544 105.836 692.059 112.812L685.398 208.043L684.336 207.972ZM971.314 162.984L972.102 163.892L965.08 169.962C935.161 195.659 916.263 211.907 908.385 218.704C904.784 221.813 891.917 232.934 875.678 247.022L875.011 246.25L964.44 169.004C965.768 167.844 968.06 165.837 971.314 162.984ZM1007.32 131.557C1054.2 90.7724 1080.06 68.3239 1084.92 64.2119C1092.74 57.584 1151.44 6.74507 1156.49 2.36665C1159.86 -0.552292 1169 -8.39697 1183.9 -21.1674L1184.65 -20.0235C1137.54 20.8417 1109.87 44.8428 1101.63 51.9796L1008.26 132.663L1007.32 131.557ZM810.779 587.214L868.536 653.93C871.973 657.909 949.57 747.519 960.68 760.381L1075.52 893.277L1135 962.105L1134.13 962.653C1134.13 962.653 1083.11 903.418 1077.09 896.407C1073.05 891.733 1064.15 881.466 1050.37 865.605C1001.41 809.328 974.848 778.785 970.674 773.976C964.44 766.757 937.655 735.61 935.099 732.775C932.543 729.94 880.079 669.107 873.254 661.231C869.91 657.356 839.945 622.789 809.838 588.035L810.779 587.214ZM461.102 184.717L410.751 126.429C407.624 122.817 398.319 112.172 382.838 94.4941C336.004 40.676 310.372 11.1618 305.942 5.95148C299.331 -1.86948 248.475 -60.5731 244.097 -65.6247C241.178 -68.9925 233.333 -78.1288 220.563 -93.0336L221.712 -93.778C262.596 -46.6589 286.6 -18.9855 293.726 -10.7577L411.725 125.767C437.426 155.686 453.674 174.585 460.467 182.462L461.852 184.066L461.102 184.717ZM283.415 566.242C246.177 579.833 225.379 587.387 221.023 588.905C212.868 591.74 151.395 614.01 146.108 615.915C142.583 617.184 133.035 620.583 117.462 626.111L117.139 624.775C166.484 606.846 195.471 596.325 204.1 593.213L282.912 564.791L283.415 566.242ZM904.981 341.475L904.505 340.381C924.252 333.266 999.429 306.037 1011.36 301.736L1150.43 251.559L1222.47 225.584L1222.72 226.596C1222.72 226.596 1160.73 248.779 1153.4 251.422C1148.5 253.184 1137.75 257.09 1121.15 263.14C1062.16 284.667 1030.14 296.343 1025.1 298.167C1017.54 300.904 984.975 312.518 981.976 313.711C978.976 314.904 915.342 337.737 907.094 340.715L904.981 341.475ZM761.041 673.343C768.883 694.819 784.859 738.554 787.711 746.397C791.438 756.637 823.772 845.459 826.257 852.3L846.223 907.151L845.456 907.43C845.456 907.43 828.408 860.22 826.372 854.637C825.022 850.912 822.021 842.724 817.369 830.074C800.822 785.195 791.854 760.835 790.464 756.993C788.367 751.241 779.43 726.437 778.51 724.155C777.755 722.272 765.594 688.739 760.137 673.682L761.041 673.343ZM573.141 161.643C569.7 152.258 567.657 146.65 567.011 144.819C564.822 138.601 547.718 91.8014 546.252 87.7787C545.277 85.0969 542.665 77.8214 538.414 65.9523L539.427 65.5855C553.204 103.152 561.288 125.22 563.678 131.787L574.367 161.161L573.141 161.643ZM581.679 612.543L582.806 613.091L539.64 705.092C537.407 709.848 487.099 817.196 479.869 832.57C472.639 847.944 409.995 981.277 405.179 991.534L366.49 1073.87L365.625 1073.32C365.625 1073.32 399.011 1002.61 402.962 994.227C405.589 988.637 411.347 976.324 420.235 957.289C451.749 889.675 468.858 852.986 471.561 847.221C475.617 838.59 493.18 801.45 494.718 797.964C496.256 794.478 530.5 721.779 534.933 712.355C537.32 707.27 560.438 657.893 581.679 612.543ZM753.236 247.131L754.216 247.679L733.489 291.928C733.112 292.727 729.817 299.776 724.831 310.432L723.813 309.885C737.764 280.155 753.159 247.268 753.159 247.268L753.236 247.131ZM773.579 203.823L835.375 72.3064C837.407 67.9827 843.351 55.1613 853.206 33.842C883.319 -30.8382 899.857 -66.256 902.819 -72.4113C907.269 -81.6497 940.211 -151.989 943.051 -158.031C944.945 -162.045 950.103 -172.925 958.524 -190.672L959.673 -189.923C933.267 -133.437 917.746 -100.258 913.109 -90.3847C908.471 -80.5114 882.89 -26.0657 836.366 72.9522C819.469 108.604 808.813 131.134 804.398 140.544C801.568 146.564 788.603 174.231 774.51 204.316L773.579 203.823ZM281.313 244.296L273.761 240.804C209.081 210.695 173.663 194.158 167.507 191.191C158.269 186.742 87.9296 153.8 81.8874 150.965C77.8738 149.071 66.9935 143.912 49.2463 135.487L49.9906 134.343C106.498 160.734 139.681 176.254 149.539 180.902L281.822 243.059L281.313 244.296ZM968.266 566.614L952.306 559.083C947.419 556.784 901.56 535.324 857.722 514.784L858.165 513.618L945.044 554.349L968.742 565.464L968.266 566.614ZM1061.47 610.349L1061.93 609.166C1066.77 611.438 1070.44 613.156 1072.48 614.092L1231.45 688.782L1313.79 727.471C1313.41 728.051 1313.24 728.336 1313.24 728.336C1313.24 728.336 1242.53 694.951 1234.15 690.999C1228.56 688.372 1216.24 682.616 1197.21 673.732C1129.59 642.229 1092.91 625.126 1087.16 622.422C1082.95 620.479 1072.01 615.313 1061.48 610.349H1061.47ZM371.618 467.191L326.876 473.342C322.892 473.89 311.116 475.583 291.548 478.421C232.074 486.857 199.488 491.432 193.789 492.148C185.224 493.242 120.45 502.229 114.901 502.995C111.19 503.502 101.142 504.841 84.7553 507.012L84.7224 505.633C136.709 498.361 167.248 494.098 176.341 492.843L326.849 472.155C345.709 469.637 360.59 467.645 371.493 466.178L371.618 467.191ZM965.934 385.27C945.64 388.051 921.499 391.334 916.518 392.019C913.234 392.473 889.443 395.784 861.027 399.73L860.879 398.499L909.19 391.811L965.775 383.968L965.934 385.27ZM1061.9 371.971L1061.75 370.718L1173.07 355.393L1248.94 344.994C1248.94 345.684 1248.97 346.034 1248.97 346.034C1248.97 346.034 1183.72 354.84 1176 355.886C1170.85 356.597 1159.52 358.183 1142.01 360.642L1061.9 371.971ZM640.224 238.166L639.227 231.052C638.801 228.016 637.482 219.049 635.27 204.152C628.703 158.871 625.138 134.06 624.576 129.718C623.739 123.184 616.728 73.8499 616.131 69.6082C615.73 66.7842 614.686 59.1219 613.001 46.6216L614.095 46.4738C619.758 86.0693 623.078 109.331 624.056 116.26C625.034 123.189 630.405 161.413 640.169 230.931C640.508 233.394 640.833 235.766 641.143 238.046L640.224 238.166ZM689.749 590.016L690.734 589.896C694.959 619.735 702.392 672.199 702.725 674.585C703.196 677.924 713.874 753.227 715.39 764.026C716.906 774.824 730.063 868.429 731.076 875.626C731.751 880.424 734.458 899.693 739.198 933.432L738.393 933.542C738.393 933.542 731.53 883.819 730.704 877.936C730.153 874.013 728.917 865.382 726.998 852.043C720.153 804.694 716.446 779 715.877 774.961C715.023 768.902 711.438 742.774 711.012 740.36C710.585 737.947 703.497 686.894 702.572 680.277C701.959 675.921 694.746 625.312 689.749 590.016ZM429.025 741.176C413.919 761.136 400.406 778.989 396.373 784.309L290.262 924.281L235.302 996.766L234.568 996.033C234.568 996.033 281.943 933.81 287.536 926.427C291.269 921.505 299.46 910.659 312.11 893.89C356.989 834.299 381.344 801.972 385.175 796.908C390.938 789.311 415.824 756.637 418.073 753.517C418.84 752.423 425.052 744.213 433.135 733.574L428.1 740.503L429.025 741.176ZM764.757 295.858L785.379 268.613L828.227 212.098L829.141 212.586L765.676 296.525L764.757 295.858ZM857.448 173.546L902.151 114.575C905.041 110.765 913.521 99.4545 927.59 80.6418C970.495 23.6348 994.029 -7.57237 998.192 -12.9797C1004.46 -21.0907 1051.28 -83.0344 1055.34 -88.3597C1058.03 -91.9062 1065.34 -101.477 1077.27 -117.071L1078.23 -116.102C1040.65 -66.3307 1018.57 -37.1012 1012.01 -28.4136L902.983 115.412C879.847 145.725 864.959 165.257 858.318 174.006L857.448 173.546ZM961.025 648.118L960.209 649.119C941.333 634.797 919.868 618.471 915.292 615.017C912.101 612.598 889.098 595.21 861.684 574.478L862.461 573.521L909.173 608.876C911.259 610.453 935.455 628.771 961.025 648.118ZM1068.16 729.266L1161.38 799.956L1233.87 854.916L1233.14 855.644C1233.14 855.644 1170.94 808.253 1163.57 802.676C1158.64 798.951 1147.8 790.761 1131.02 778.108L1067.41 730.197L1068.16 729.266ZM524.239 318.844L505.762 304.861L373.474 204.578L374.092 203.692C393.178 218.246 405.816 227.872 412.004 232.568C421.324 239.606 489.836 291.435 524.863 317.93L524.239 318.844ZM291.395 142.761C251.08 112.407 228.67 95.4883 224.164 92.0038C216.053 85.7318 154.109 38.9155 148.784 34.8545C145.238 32.1618 135.667 24.8535 120.073 12.9296L121.041 11.9663C170.813 49.5478 200.041 71.6223 208.725 78.1899L292.26 141.529L291.395 142.761ZM344.182 628.738L343.438 627.539L375.696 607.519C403.98 590.115 421.841 579.105 429.277 574.489C435.56 570.587 471.72 548.071 502.615 528.822L503.195 529.753L376.188 608.564C372.77 610.688 362.699 617.026 345.977 627.578L344.16 628.716L344.182 628.738ZM233.468 697.698C216.212 708.42 197.313 720.187 194.61 721.861C191.432 723.835 182.797 729.146 168.706 737.793L168.115 736.551C197.739 718.063 219.235 704.654 232.604 696.324L233.468 697.698ZM952.744 250.36C951.048 251.422 949.86 252.172 949.417 252.473C946.729 254.263 889.213 289.826 881.781 294.451C876.423 297.773 808.924 339.844 769.666 364.249L769.059 363.154L875 297.248L952.131 249.26L952.744 250.36ZM993.409 225.152L992.774 224.002L1101.27 156.684L1166.33 116.293L1166.78 117.234C1166.78 117.234 1110.76 151.819 1104.13 155.929C1099.71 158.669 1090.01 164.726 1075.01 174.099C1031.68 201.224 1004.48 218.241 993.409 225.152ZM790.967 622.882L790.135 623.38C782.117 610.595 771.713 594.001 762.223 578.873L763.071 578.364C772.277 593.043 783.151 610.398 790.967 622.882ZM821.824 672.139C833.449 690.698 846.277 711.184 849.348 716.093L909.069 811.679L940.003 861.177L939.313 861.61C939.313 861.61 912.818 818.98 909.671 813.94C907.57 810.572 902.931 803.189 895.754 791.79C870.238 751.315 856.401 729.35 854.241 725.895C851.001 720.707 837.094 698.3 835.725 696.264C835.058 695.268 828.2 684.295 820.948 672.675L821.824 672.139ZM600.714 320.557L563.607 261.181L564.411 260.715C577.379 281.651 585.601 294.904 589.078 300.471C590.512 302.77 595.246 310.323 601.409 320.174L600.714 320.557ZM521.514 194.519C513.983 182.551 509.604 175.564 508.378 173.557C504.958 167.931 478.485 125.712 476.213 122.084C474.703 119.661 470.635 113.093 464.009 102.381L464.923 101.833C486.213 135.668 498.713 155.555 502.424 161.495L522.674 193.868L521.514 194.519ZM611.195 665.747C614.883 649.875 618.807 633.023 622.524 617.075L623.744 617.332L612.431 666.004L611.195 665.747ZM600.796 710.395L594.617 739.479L595.23 739.61C587.945 770.861 569.315 850.839 566.146 864.395C562.277 880.935 528.716 1024.38 526.138 1035.42C524.412 1042.77 517.504 1072.3 505.412 1124L504.449 1123.63C504.449 1123.63 522.417 1047.52 524.524 1038.49C525.932 1032.48 529.003 1019.24 533.735 998.775C550.493 926.089 559.597 886.651 561.045 880.459C563.234 871.155 572.675 831.202 573.447 827.442C574.219 823.682 592.603 745.51 594.989 735.369C595.503 733.234 597.654 723.892 600.812 710.395H600.796ZM708.872 247.465L709.966 247.657C705.396 267.316 702.074 281.589 701.79 282.815C701.565 283.762 699.447 292.902 696.317 306.399L695.178 306.202C700.159 284.928 705.637 261.416 708.888 247.465H708.872ZM728.159 164.959L755.825 46.8405C756.919 42.1884 760.068 28.4091 765.271 5.5027C781.274 -64.0193 790.086 -102.102 791.706 -108.747C794.141 -118.708 811.737 -194.356 813.259 -200.852C814.269 -205.187 817.051 -216.903 821.605 -236L822.88 -235.507C808.796 -174.75 800.516 -139.067 798.038 -128.461C795.561 -117.854 781.854 -59.2797 756.919 47.2619C747.798 85.646 742.058 109.899 739.701 120.02C738.568 124.869 734.387 142.821 729.198 165.134L728.159 164.959ZM397.227 364.626L282.84 337.863C278.188 336.768 264.409 333.62 241.503 328.417C171.981 312.414 133.898 303.607 127.253 301.998C117.292 299.563 41.6442 281.967 35.1478 280.446C30.8131 279.424 19.0972 276.636 0 272.083L0.492572 270.802C61.2504 284.886 96.9327 293.167 107.539 295.644L283.262 336.758C321.646 345.879 345.899 351.619 356.02 353.976L397.44 363.619L397.227 364.626ZM987.919 502.546L988.368 501.386C1024.63 509.837 1088.42 524.701 1100.39 527.498L1271.41 567.511L1359.99 588.238L1359.62 589.201C1359.62 589.201 1283.51 571.233 1274.49 569.126C1268.47 567.721 1255.23 564.651 1234.77 559.915C1162.08 543.156 1122.65 534.055 1116.45 532.61C1107.15 530.42 1067.2 520.974 1063.44 520.202C1060.56 519.617 1014.12 508.709 987.919 502.557V502.546Z" fill="white"/>
</g>
</g>
</g>
<defs>
<clipPath id="clip0_263_514">
<rect width="1360" height="1360" fill="white" transform="translate(0 -236)"/>
</clipPath>
<clipPath id="clip1_263_514">
<rect width="1366" height="692" fill="white" transform="translate(0 41)"/>
</clipPath>
<clipPath id="clip2_263_514">
<rect width="1366" height="967" fill="white" transform="translate(0 -236)"/>
</clipPath>
</defs>
</svg>
