<svg width="485" height="98" viewBox="0 0 485 98" fill="none" xmlns="http://www.w3.org/2000/svg">
<g filter="url(#filter0_d_528_2475)">
<rect x="5" y="5" width="468.039" height="81.1569" rx="24.4118" fill="#B8B08D"/>
<path d="M70.3122 36.5969H60.0978V29.2734H89.681V36.5969H79.4666V63.5784H70.3122V36.5969ZM111.491 52.2076H96.1211C96.2817 54.1027 96.8277 55.4679 97.7592 56.303C98.6907 57.1382 100.056 57.5557 101.855 57.5557C103.075 57.5557 104.296 57.363 105.516 56.9776C106.737 56.56 107.845 55.9979 108.841 55.2912L111.057 61.073C109.837 61.9723 108.359 62.679 106.625 63.1929C104.89 63.7069 103.156 63.9638 101.421 63.9638C98.6265 63.9638 96.2014 63.4499 94.1456 62.422C92.0899 61.3942 90.516 59.9327 89.4239 58.0375C88.3318 56.1103 87.7857 53.8458 87.7857 51.244C87.7857 48.7707 88.2997 46.5704 89.3275 44.6432C90.3875 42.6838 91.833 41.1581 93.6638 40.066C95.5268 38.9739 97.6468 38.4278 100.024 38.4278C102.336 38.4278 104.36 38.9418 106.095 39.9696C107.829 40.9975 109.162 42.475 110.094 44.4023C111.025 46.2974 111.491 48.5137 111.491 51.0513V52.2076ZM100.265 44.4023C98.1126 44.4023 96.7635 45.655 96.2174 48.1604H104.023C103.702 45.655 102.449 44.4023 100.265 44.4023ZM141.302 39.1024V63.5784H132.726V60.2539C132.019 61.4102 130.991 62.3257 129.642 63.0002C128.293 63.6426 126.816 63.9638 125.21 63.9638C123.122 63.9638 121.259 63.4499 119.621 62.422C117.982 61.3942 116.698 59.9327 115.766 58.0375C114.867 56.1103 114.417 53.894 114.417 51.3885C114.417 48.851 114.883 46.6026 115.814 44.6432C116.746 42.6838 118.031 41.1581 119.669 40.066C121.307 38.9739 123.154 38.4278 125.21 38.4278C126.816 38.4278 128.277 38.7812 129.594 39.4878C130.943 40.1623 131.987 41.0778 132.726 42.2341V39.1024H141.302ZM127.908 57.4594C129.45 57.4594 130.638 56.9294 131.473 55.8694C132.308 54.8094 132.726 53.2837 132.726 51.2922C132.726 49.2686 132.308 47.7268 131.473 46.6668C130.638 45.5747 129.45 45.0286 127.908 45.0286C126.398 45.0286 125.21 45.5908 124.342 46.715C123.475 47.8071 123.042 49.3649 123.042 51.3885C123.042 53.3479 123.459 54.8576 124.294 55.9176C125.129 56.9454 126.334 57.4594 127.908 57.4594ZM177.659 38.4278C180.485 38.4278 182.573 39.2951 183.922 41.0296C185.303 42.7641 185.994 45.4141 185.994 48.9795V63.5784H177.273V49.2204C177.273 47.775 177.048 46.731 176.599 46.0886C176.181 45.4462 175.458 45.125 174.43 45.125C173.21 45.125 172.262 45.5747 171.588 46.4741C170.913 47.3735 170.576 48.6422 170.576 50.2804V63.5784H161.855V49.2204C161.855 47.775 161.63 46.731 161.181 46.0886C160.731 45.4462 160.008 45.125 159.012 45.125C157.792 45.125 156.844 45.5747 156.17 46.4741C155.527 47.3735 155.206 48.6422 155.206 50.2804V63.5784H146.485V46.1368C146.485 43.5029 146.357 41.1581 146.1 39.1024H154.291L154.724 42.5232C155.463 41.2063 156.491 40.1945 157.808 39.4878C159.157 38.7812 160.699 38.4278 162.433 38.4278C165.934 38.4278 168.311 39.9054 169.564 42.8605C170.431 41.5114 171.572 40.4354 172.985 39.6324C174.43 38.8293 175.988 38.4278 177.659 38.4278ZM240.238 29.2734V63.5784H232.337L232.288 47.8713L225.784 63.5784H220.05L213.498 48.064V63.5784H205.644V29.2734H212.727L222.989 52.6894L233.204 29.2734H240.238ZM268.644 52.2076H253.274C253.435 54.1027 253.981 55.4679 254.912 56.303C255.844 57.1382 257.209 57.5557 259.008 57.5557C260.228 57.5557 261.449 57.363 262.67 56.9776C263.89 56.56 264.998 55.9979 265.994 55.2912L268.21 61.073C266.99 61.9723 265.512 62.679 263.778 63.1929C262.043 63.7069 260.309 63.9638 258.574 63.9638C255.78 63.9638 253.355 63.4499 251.299 62.422C249.243 61.3942 247.669 59.9327 246.577 58.0375C245.485 56.1103 244.939 53.8458 244.939 51.244C244.939 48.7707 245.453 46.5704 246.481 44.6432C247.541 42.6838 248.986 41.1581 250.817 40.066C252.68 38.9739 254.8 38.4278 257.177 38.4278C259.49 38.4278 261.513 38.9418 263.248 39.9696C264.982 40.9975 266.315 42.475 267.247 44.4023C268.178 46.2974 268.644 48.5137 268.644 51.0513V52.2076ZM257.418 44.4023C255.266 44.4023 253.917 45.655 253.371 48.1604H261.176C260.855 45.655 259.602 44.4023 257.418 44.4023ZM303.852 38.4278C306.678 38.4278 308.766 39.2951 310.115 41.0296C311.496 42.7641 312.187 45.4141 312.187 48.9795V63.5784H303.466V49.2204C303.466 47.775 303.241 46.731 302.792 46.0886C302.374 45.4462 301.651 45.125 300.624 45.125C299.403 45.125 298.455 45.5747 297.781 46.4741C297.106 47.3735 296.769 48.6422 296.769 50.2804V63.5784H288.048V49.2204C288.048 47.775 287.823 46.731 287.374 46.0886C286.924 45.4462 286.201 45.125 285.206 45.125C283.985 45.125 283.037 45.5747 282.363 46.4741C281.72 47.3735 281.399 48.6422 281.399 50.2804V63.5784H272.679V46.1368C272.679 43.5029 272.55 41.1581 272.293 39.1024H280.484L280.917 42.5232C281.656 41.2063 282.684 40.1945 284.001 39.4878C285.35 38.7812 286.892 38.4278 288.626 38.4278C292.128 38.4278 294.505 39.9054 295.757 42.8605C296.625 41.5114 297.765 40.4354 299.178 39.6324C300.624 38.8293 302.181 38.4278 303.852 38.4278ZM333.377 38.4278C335.497 38.4278 337.376 38.9578 339.014 40.0178C340.653 41.0457 341.921 42.5232 342.821 44.4505C343.752 46.3777 344.218 48.594 344.218 51.0995C344.218 53.637 343.752 55.8855 342.821 57.8448C341.889 59.7721 340.604 61.2817 338.966 62.3738C337.328 63.4338 335.465 63.9638 333.377 63.9638C331.739 63.9638 330.246 63.6426 328.896 63.0002C327.547 62.3257 326.536 61.4102 325.861 60.2539V63.5784H317.237V28.1171H325.957V42.0414C326.664 40.9493 327.676 40.082 328.993 39.4396C330.31 38.7651 331.771 38.4278 333.377 38.4278ZM330.727 57.4594C332.269 57.4594 333.442 56.9133 334.245 55.8212C335.08 54.7291 335.497 53.1552 335.497 51.0995C335.497 49.1401 335.096 47.6465 334.293 46.6186C333.49 45.5586 332.301 45.0286 330.727 45.0286C329.153 45.0286 327.949 45.5586 327.114 46.6186C326.279 47.6786 325.861 49.2043 325.861 51.1958C325.861 53.2516 326.279 54.8094 327.114 55.8694C327.949 56.9294 329.153 57.4594 330.727 57.4594ZM370.888 52.2076H355.518C355.679 54.1027 356.225 55.4679 357.156 56.303C358.088 57.1382 359.453 57.5557 361.252 57.5557C362.472 57.5557 363.693 57.363 364.913 56.9776C366.134 56.56 367.242 55.9979 368.238 55.2912L370.454 61.073C369.234 61.9723 367.756 62.679 366.022 63.1929C364.287 63.7069 362.552 63.9638 360.818 63.9638C358.023 63.9638 355.598 63.4499 353.543 62.422C351.487 61.3942 349.913 59.9327 348.821 58.0375C347.729 56.1103 347.183 53.8458 347.183 51.244C347.183 48.7707 347.697 46.5704 348.724 44.6432C349.784 42.6838 351.23 41.1581 353.061 40.066C354.924 38.9739 357.044 38.4278 359.421 38.4278C361.733 38.4278 363.757 38.9418 365.492 39.9696C367.226 40.9975 368.559 42.475 369.491 44.4023C370.422 46.2974 370.888 48.5137 370.888 51.0513V52.2076ZM359.662 44.4023C357.51 44.4023 356.16 45.655 355.614 48.1604H363.42C363.099 45.655 361.846 44.4023 359.662 44.4023ZM390.388 38.5242C391.577 38.5242 392.492 38.7009 393.135 39.0542V47.0041C391.753 46.3617 390.42 46.0404 389.136 46.0404C385.474 46.0404 383.643 47.791 383.643 51.2922V63.5784H374.922V46.1368C374.922 43.5029 374.794 41.1581 374.537 39.1024H382.728L383.258 43.1978C383.836 41.6881 384.767 40.5317 386.052 39.7287C387.337 38.9257 388.782 38.5242 390.388 38.5242ZM405.267 63.9638C400.385 63.9638 396.53 62.9841 393.703 61.0248L395.92 55.0985C397.237 55.9979 398.73 56.7045 400.401 57.2185C402.071 57.7003 403.709 57.9412 405.315 57.9412C406.311 57.9412 407.082 57.7966 407.628 57.5075C408.174 57.2185 408.447 56.817 408.447 56.303C408.447 55.8533 408.238 55.5 407.821 55.243C407.435 54.9539 406.68 54.697 405.556 54.4721L401.605 53.5567C399.1 53.0428 397.285 52.2397 396.161 51.1476C395.069 50.0234 394.523 48.4816 394.523 46.5223C394.523 44.9483 394.988 43.5511 395.92 42.3305C396.851 41.1099 398.136 40.1623 399.774 39.4878C401.445 38.7812 403.356 38.4278 405.508 38.4278C407.274 38.4278 409.009 38.6848 410.711 39.1987C412.414 39.7127 414.004 40.4354 415.481 41.3669L413.169 47.1486C411.884 46.3135 410.567 45.6711 409.218 45.2214C407.869 44.7717 406.6 44.5468 405.411 44.5468C404.448 44.5468 403.693 44.7074 403.147 45.0286C402.601 45.3177 402.328 45.7514 402.328 46.3295C402.328 46.6829 402.488 46.9719 402.81 47.1968C403.131 47.3895 403.741 47.5983 404.641 47.8231L408.736 48.7386C411.338 49.3489 413.201 50.2483 414.325 51.4367C415.481 52.5931 416.059 54.1831 416.059 56.2067C416.059 58.6157 415.096 60.5108 413.169 61.892C411.273 63.2732 408.64 63.9638 405.267 63.9638Z" fill="#283845"/>
</g>
<defs>
<filter id="filter0_d_528_2475" x="0.117647" y="0.117647" width="484.314" height="97.4314" filterUnits="userSpaceOnUse" color-interpolation-filters="sRGB">
<feFlood flood-opacity="0" result="BackgroundImageFix"/>
<feColorMatrix in="SourceAlpha" type="matrix" values="0 0 0 0 0 0 0 0 0 0 0 0 0 0 0 0 0 0 127 0" result="hardAlpha"/>
<feOffset dx="3.2549" dy="3.2549"/>
<feGaussianBlur stdDeviation="4.06863"/>
<feComposite in2="hardAlpha" operator="out"/>
<feColorMatrix type="matrix" values="0 0 0 0 1 0 0 0 0 1 0 0 0 0 1 0 0 0 0.2 0"/>
<feBlend mode="normal" in2="BackgroundImageFix" result="effect1_dropShadow_528_2475"/>
<feBlend mode="normal" in="SourceGraphic" in2="effect1_dropShadow_528_2475" result="shape"/>
</filter>
</defs>
</svg>
